Coordinates
version=1
nRows=18
nColumns=22
inDegrees=yes

Units are S.I. units (second, meters, Newtons, ...)
If the header above contains a line with 'inDegrees', this indicates whether rotational values are in degrees (yes) or radians (no).

endheader
time	pelvis_tilt	pelvis_list	pelvis_rotation	pelvis_tx	pelvis_ty	pelvis_tz	hip_flexion_r	hip_adduction_r	hip_rotation_r	knee_angle_r	ankle_angle_r	subtalar_angle_r	hip_flexion_l	hip_adduction_l	hip_rotation_l	knee_angle_l	ankle_angle_l	subtalar_angle_l	lumbar_extension	lumbar_bending	lumbar_rotation
      0.01000000	     -9.15834417	      2.57177736	    -37.87265919	     -0.95119878	      0.88292829	     -0.38391834	      9.04477082	      1.13321873	     -2.22819086	     -6.02844948	     11.60361234	      0.74506004	      6.46031146	     -4.81589290	     -3.80308419	     -6.12810994	     14.32549980	     -1.44280315	      4.41826897	      2.11358770	     11.48183947
      0.02000000	     -9.16315264	      2.57233627	    -37.86704872	     -0.95117242	      0.88292749	     -0.38398064	      9.04652279	      1.13035070	     -2.22796509	     -6.02240281	     11.60397840	      0.74532879	      6.46509532	     -4.81430606	     -3.80589326	     -6.12543714	     14.32789810	     -1.44151998	      4.41120395	      2.11570938	     11.48588353
      0.03000000	     -9.17368825	      2.57870355	    -37.86226646	     -0.95112568	      0.88291295	     -0.38402854	      9.04378630	      1.12686278	     -2.23135741	     -5.99401786	     11.59729097	      0.74900452	      6.47917474	     -4.81157705	     -3.81827666	     -6.12903118	     14.33641474	     -1.43173887	      4.41829834	      2.11334046	     11.51623574
      0.04000000	     -9.17964613	      2.58042555	    -37.86207007	     -0.95111570	      0.88290810	     -0.38409876	      9.04950709	      1.12451502	     -2.23087232	     -5.98860423	     11.59591794	      0.74965160	      6.48497263	     -4.81048370	     -3.82170107	     -6.12464173	     14.33704205	     -1.43032265	      4.40727339	      2.11412260	     11.51955946
      0.05000000	     -9.20391037	      2.60851484	    -37.89487016	     -0.95114912	      0.88286614	     -0.38412515	      9.08901433	      1.11810566	     -2.17442890	     -5.97686282	     11.55697348	      0.77047390	      6.51912592	     -4.80384687	     -3.88655355	     -6.12254677	     14.33042317	     -1.39071913	      4.43211021	      2.10352761	     11.58353477
      0.06000000	     -9.21486077	      2.61784217	    -37.90325283	     -0.95115723	      0.88284581	     -0.38417786	      9.10493725	      1.11490653	     -2.17464345	     -5.97134150	     11.56173745	      0.77493002	      6.53149051	     -4.80146123	     -3.89921226	     -6.11556837	     14.32915975	     -1.38045293	      4.42986516	      2.09729567	     11.62192970
      0.07000000	     -9.23056707	      2.64689272	    -37.94272992	     -0.95121715	      0.88280555	     -0.38419806	      9.15482936	      1.10381373	     -2.13023964	     -5.98943261	     11.54898788	      0.78446943	      6.54876331	     -4.78921416	     -3.94745813	     -6.09318079	     14.32056256	     -1.36321292	      4.44258387	      2.07852848	     11.67781768
      0.08000000	     -9.24364540	      2.66827829	    -37.97010295	     -0.95127147	      0.88277218	     -0.38422693	      9.18681295	      1.09666498	     -2.09606246	     -5.99025828	     11.56318153	      0.79039931	      6.57303770	     -4.78168537	     -3.97771992	     -6.09472812	     14.30814663	     -1.35370263	      4.44616232	      2.06267487	     11.73181274
      0.09000000	     -9.24991665	      2.67191522	    -37.97673306	     -0.95128754	      0.88276135	     -0.38427725	      9.19610700	      1.09620808	     -2.09576355	     -5.98592495	     11.56289260	      0.79065442	      6.57912519	     -4.78060215	     -3.98115408	     -6.08812741	     14.30916255	     -1.35335068	      4.43206789	      2.05968214	     11.73293884
      0.10000000	     -9.26850804	      2.72231360	    -38.04618438	     -0.95137593	      0.88270019	     -0.38424097	      9.27396511	      1.07558778	     -2.00369133	     -6.02436651	     11.55750942	      0.79789914	      6.60822419	     -4.75633769	     -4.06686892	     -6.06824282	     14.29496253	     -1.34796188	      4.46394074	      2.02454874	     11.82638786
      0.11000000	     -9.27571914	      2.73190852	    -38.06147859	     -0.95137366	      0.88268413	     -0.38425210	      9.28547952	      1.07305041	     -2.00370654	     -6.01823697	     11.56175886	      0.79869639	      6.61978162	     -4.75244108	     -4.07246533	     -6.07303273	     14.29504382	     -1.34747518	      4.46104689	      2.01556827	     11.85878726
      0.12000000	     -9.28101001	      2.73456324	    -38.06711073	     -0.95135108	      0.88267676	     -0.38427465	      9.29019125	      1.07320596	     -2.00315523	     -6.01547782	     11.56199148	      0.79886464	      6.62428208	     -4.75052165	     -4.07404226	     -6.07069582	     14.29539038	     -1.34755400	      4.45163632	      2.01350281	     11.86099152
      0.13000000	     -9.28979049	      2.76480857	    -38.11214921	     -0.95137211	      0.88264357	     -0.38425353	      9.32948319	      1.05808625	     -1.93943755	     -6.03042495	     11.55787492	      0.80469147	      6.64910124	     -4.73359371	     -4.13132070	     -6.08278525	     14.29835017	     -1.35450152	      4.46585914	      1.99050393	     11.93002766
      0.14000000	     -9.29407573	      2.76661970	    -38.12019871	     -0.95132400	      0.88263890	     -0.38426138	      9.33102210	      1.05760143	     -1.94135973	     -6.02741622	     11.55901301	      0.80480744	      6.65139652	     -4.73220957	     -4.12983756	     -6.08462155	     14.29808751	     -1.35467938	      4.45988925	      1.99100647	     11.93145421
      0.15000000	     -9.29793501	      2.76830932	    -38.12861398	     -0.95126704	      0.88263529	     -0.38427453	      9.33194428	      1.05618677	     -1.94265355	     -6.02414636	     11.55993445	      0.80508520	      6.65375847	     -4.73009188	     -4.12804769	     -6.08897796	     14.29825515	     -1.35515864	      4.45421669	      1.99277352	     11.93618246
      0.16000000	     -9.29979396	      2.76911801	    -38.14011617	     -0.95121073	      0.88263288	     -0.38427829	      9.32885671	      1.05543257	     -1.93693069	     -6.01877146	     11.56020811	      0.80767373	      6.66075240	     -4.72847599	     -4.12896765	     -6.10921684	     14.30420018	     -1.35952037	      4.44787547	      1.99220665	     11.96440230
      0.17000000	     -9.30385580	      2.77081753	    -38.14840685	     -0.95113965	      0.88262955	     -0.38429672	      9.33002798	      1.05311272	     -1.93671794	     -6.01656372	     11.56003142	      0.80807523	      6.66125189	     -4.72536552	     -4.12986285	     -6.11038518	     14.30582107	     -1.36024428	      4.44314592	      1.99684006	     11.96425735
      0.18000000	     -9.30766682	      2.77248851	    -38.15850836	     -0.95105985	      0.88262750	     -0.38431090	      9.33020669	      1.05082155	     -1.93597916	     -6.01447247	     11.55950057	      0.80869104	      6.66074706	     -4.72187873	     -4.13071753	     -6.11260416	     14.30810894	     -1.36123999	      4.43989369	      2.00261723	     11.96531325
